<svg width="22" height="22" viewBox="0 0 22 22" fill="none" xmlns="http://www.w3.org/2000/svg">
<path d="M1.9707 8.52363C1.9707 6.89975 3.28712 5.58333 4.91099 5.58333V5.58333C5.89409 5.58333 6.81214 5.09201 7.35747 4.27402L7.38737 4.22917C7.95137 3.38316 8.90088 2.875 9.91765 2.875H12.0793C13.0961 2.875 14.0456 3.38316 14.6096 4.22917L14.6395 4.27402C15.1848 5.09201 16.1029 5.58333 17.086 5.58333V5.58333C18.7098 5.58333 20.0263 6.89975 20.0263 8.52362V15.125C20.0263 17.3341 18.2354 19.125 16.0263 19.125H5.97071C3.76157 19.125 1.9707 17.3341 1.9707 15.125V8.52363Z" stroke="#F0F4EF" stroke-width="2" stroke-linecap="round" stroke-linejoin="round"/>
<circle cx="10.9998" cy="11.9031" r="3.61111" stroke="#F0F4EF" stroke-width="2" stroke-linecap="round" stroke-linejoin="round"/>
</svg>
